HIERARCHY
ROOT Hips
{
	OFFSET 0.000000 0.000000 0.000000
	CHANNELS 6 Xposition Yposition Zposition Yrotation Xrotation Zrotation
	JOINT Chest
	{
		OFFSET 0.000000 -0.009281 11.569106
		CHANNELS 3 Yrotation Xrotation Zrotation
		JOINT Chest2
		{
			OFFSET -0.000000 0.016865 9.269641
			CHANNELS 3 Yrotation Xrotation Zrotation
			JOINT Chest3
			{
				OFFSET -0.000000 0.000001 8.374491
				CHANNELS 3 Yrotation Xrotation Zrotation
				JOINT Chest4
				{
					OFFSET -0.000000 0.000001 8.374493
					CHANNELS 3 Yrotation Xrotation Zrotation
					JOINT Neck
					{
						OFFSET -0.000000 0.000002 12.152554
						CHANNELS 3 Yrotation Xrotation Zrotation
						JOINT Head
						{
							OFFSET -0.000000 0.040101 7.802319
							CHANNELS 3 Yrotation Xrotation Zrotation
							End Site
							{
								OFFSET -0.000000 0.020947 14.853096
							}
						}
					}
					JOINT RightCollar
					{
						OFFSET 2.894404 0.000001 6.791374
						CHANNELS 3 Yrotation Xrotation Zrotation
						JOINT RightShoulder
						{
							OFFSET 13.574684 0.000001 0.000000
							CHANNELS 3 Yrotation Xrotation Zrotation
							JOINT RightElbow
							{
								OFFSET 23.923903 0.000002 0.000000
								CHANNELS 3 Yrotation Xrotation Zrotation
								JOINT RightWrist
								{
									OFFSET 19.846718 0.012767 0.000000
									CHANNELS 3 Yrotation Xrotation Zrotation
									End Site
									{
										OFFSET 14.973145 0.000001 0.000000
									}
								}
							}
						}
					}
					JOINT LeftCollar
					{
						OFFSET -2.894404 0.000001 6.791374
						CHANNELS 3 Yrotation Xrotation Zrotation
						JOINT LeftShoulder
						{
							OFFSET -13.574684 -0.000001 0.000000
							CHANNELS 3 Yrotation Xrotation Zrotation
							JOINT LeftElbow
							{
								OFFSET -23.923903 -0.000002 0.000000
								CHANNELS 3 Yrotation Xrotation Zrotation
								JOINT LeftWrist
								{
									OFFSET -19.846718 0.012763 0.000000
									CHANNELS 3 Yrotation Xrotation Zrotation
									End Site
									{
										OFFSET -14.973145 -0.000001 0.000000
									}
								}
							}
						}
					}
				}
			}
		}
	}
	JOINT RightHip
	{
		OFFSET 9.469263 0.004643 0.045487
		CHANNELS 3 Yrotation Xrotation Zrotation
		JOINT RightKnee
		{
			OFFSET 0.000000 0.002661 -40.478676
			CHANNELS 3 Yrotation Xrotation Zrotation
			JOINT RightAnkle
			{
				OFFSET 0.000000 0.049106 -35.224068
				CHANNELS 3 Yrotation Xrotation Zrotation
				JOINT RightToe
				{
					OFFSET -0.000001 12.539529 -6.151390
					CHANNELS 3 Yrotation Xrotation Zrotation
					End Site
					{
						OFFSET -0.000001 5.044994 -1.291870
					}
				}
			}
		}
	}
	JOINT LeftHip
	{
		OFFSET -9.469263 0.004641 0.045487
		CHANNELS 3 Yrotation Xrotation Zrotation
		JOINT LeftKnee
		{
			OFFSET 0.000000 0.002661 -40.478676
			CHANNELS 3 Yrotation Xrotation Zrotation
			JOINT LeftAnkle
			{
				OFFSET 0.000000 0.049106 -35.224068
				CHANNELS 3 Yrotation Xrotation Zrotation
				JOINT LeftToe
				{
					OFFSET -0.000001 12.539529 -6.151390
					CHANNELS 3 Yrotation Xrotation Zrotation
					End Site
					{
						OFFSET -0.000001 5.044994 -1.291870
					}
				}
			}
		}
	}
}
MOTION
Frames: 12
Frame Time: 0.016667
76.492584 -1.253126 83.707031 0.019504 2.108255 -133.754911 -3.750987 -4.006333 0.195909 -1.624631 -1.774807 0.049609 -1.624631 -1.774806 0.049606 -1.218232 -1.331248 0.032477 4.184163 -23.664782 -4.435149 6.373728 -7.686642 -6.889578 9.378281 6.218051 -0.919554 42.704211 -15.197246 -16.334230 -34.511990 -63.607243 98.453482 -57.268988 34.658910 38.240938 -8.841335 3.981940 -5.163178 -38.730280 -13.112865 24.359082 20.073134 -62.322334 -86.301585 34.511785 25.545749 -68.779213 -8.595765 10.289677 -26.662811 1.714075 -0.974787 -12.674727 5.723016 -9.406737 4.987155 0.120766 0.977053 0.040388 0.098468 -8.321756 13.661170 -1.728201 -1.437897 15.177664 1.528268 -1.835626 8.353676 -7.202719 8.770404 -0.588830 
76.455162 -2.042787 83.852180 0.034971 2.168579 -133.775061 -3.780441 -3.985692 0.209431 -1.657260 -1.770327 0.062355 -1.657260 -1.770326 0.062357 -1.242666 -1.327927 0.041959 3.981096 -23.532768 -4.210211 6.063032 -7.449098 -6.534514 9.396821 6.199297 -0.855495 42.746555 -15.343101 -16.269480 -34.091438 -63.618370 98.013495 -57.228280 34.651459 38.204516 -8.778092 3.906746 -5.139494 -38.709711 -12.955226 24.280887 20.300190 -62.303852 -86.583699 34.538214 25.639243 -68.776945 -8.085109 9.798840 -26.663245 1.834089 -0.712348 -12.128792 5.519633 -8.831966 4.601886 0.107152 0.778324 0.027402 0.526195 -8.459544 13.409350 -1.680882 -1.478018 15.121822 1.903801 -3.117444 8.231206 -8.454751 10.130202 -0.780738 
76.337715 -2.865659 83.989975 0.052238 2.216965 -133.814047 -3.782257 -3.946557 0.242635 -1.685651 -1.760142 0.081044 -1.685651 -1.760140 0.081045 -1.263906 -1.320342 0.055925 3.784827 -23.427332 -3.980516 5.767007 -7.260380 -6.170097 9.396592 6.164403 -0.792106 42.793116 -15.434103 -16.251773 -33.828530 -63.632378 97.702905 -57.190554 34.641992 38.188554 -8.756786 3.939622 -5.091731 -38.718433 -12.933390 24.268579 20.290795 -62.286606 -86.663243 34.544324 25.658637 -68.758811 -7.606269 9.313414 -26.506207 1.961087 -0.448180 -11.713446 5.326741 -8.292067 4.210218 0.104135 0.617996 0.035391 0.997105 -8.570647 13.045536 -1.622136 -1.522954 15.223582 2.278109 -4.381588 8.073448 -9.697700 11.394395 -1.004867 
76.314949 -3.619333 84.104431 0.051692 2.273203 -133.845835 -3.799728 -3.906469 0.272270 -1.714796 -1.749480 0.104880 -1.714796 -1.749478 0.104879 -1.285698 -1.312416 0.073744 3.610091 -23.325135 -3.744682 5.511798 -7.076974 -5.789286 9.376714 6.113533 -0.758423 42.821943 -15.433282 -16.208331 -33.748996 -63.700585 97.597550 -57.154866 34.602029 38.176396 -8.750013 3.989149 -5.060908 -38.677462 -12.894001 24.298769 20.192836 -62.309780 -86.708049 34.553340 25.606837 -68.747719 -7.041798 8.951413 -26.189937 2.046380 -0.290139 -11.673358 5.000326 -7.740443 4.118414 0.093146 0.508920 0.004023 1.333392 -8.717996 12.706812 -1.530534 -1.537360 15.299723 2.711931 -5.562903 7.962446 -10.916121 12.569339 -1.235500 
76.131073 -4.409659 84.194748 0.026186 2.349319 -133.929559 -3.844283 -3.856837 0.341694 -1.745797 -1.739287 0.128701 -1.745797 -1.739288 0.128699 -1.308883 -1.304848 0.091548 3.444495 -23.216079 -3.495871 5.276695 -6.880558 -5.382718 9.370033 6.102496 -0.710674 42.809860 -15.427881 -16.172606 -33.693248 -63.822476 97.571704 -57.091509 34.531650 38.158993 -8.751328 4.012520 -5.041008 -38.585026 -12.768685 24.371105 20.246593 -62.339464 -86.898468 34.538067 25.538788 -68.739215 -6.706807 8.640790 -25.774269 2.134410 -0.275257 -11.849985 4.755699 -7.225659 4.112215 0.127512 0.429079 0.006715 1.717843 -8.816939 12.546585 -1.440027 -1.544656 15.245015 3.072377 -6.756800 7.969279 -12.107303 13.597800 -1.488831 
75.997330 -5.134464 84.262604 -0.038256 2.430307 -133.999473 -3.915688 -3.829716 0.391692 -1.777278 -1.731694 0.151973 -1.777277 -1.731693 0.151963 -1.332426 -1.299225 0.108932 3.282454 -23.087966 -3.234582 5.051389 -6.648595 -4.952453 9.375450 6.083958 -0.663680 42.782574 -15.448117 -16.121570 -33.592308 -63.927087 97.541713 -57.017880 34.442967 38.127192 -8.724937 4.007575 -4.994183 -38.493300 -12.604869 24.423215 20.422551 -62.348473 -87.174510 34.500317 25.445424 -68.752964 -6.290571 8.375836 -25.449398 2.187840 -0.278537 -11.933004 4.414954 -6.679986 4.169393 0.146554 0.351488 -0.059287 2.008204 -8.955533 12.523559 -1.342241 -1.521928 15.104748 3.490747 -7.855617 7.870173 -13.259772 14.518125 -1.741534 
75.822121 -5.857913 84.313347 -0.077815 2.498142 -134.071573 -3.958120 -3.811229 0.454662 -1.810754 -1.729778 0.177473 -1.810755 -1.729778 0.177471 -1.357460 -1.297872 0.127970 3.134653 -22.930760 -2.975413 4.851240 -6.362161 -4.521684 9.395043 6.063845 -0.635218 42.770897 -15.492628 -16.068134 -33.484108 -63.968178 97.503081 -56.955452 34.357795 38.068958 -8.681859 3.991662 -4.983508 -38.423362 -12.434030 24.450636 20.681275 -62.332470 -87.468366 34.456020 25.442209 -68.765764 -5.929229 8.084672 -25.272156 2.262208 -0.247607 -11.873628 4.115135 -6.168939 4.175357 0.171519 0.265923 -0.090430 2.338139 -9.063258 12.600216 -1.259266 -1.503928 14.951197 3.850724 -8.950708 7.824400 -14.354848 15.362400 -2.001790 
75.682022 -6.543059 84.355705 -0.163334 2.604435 -134.109726 -4.042930 -3.815049 0.486904 -1.844832 -1.725367 0.200312 -1.844832 -1.725367 0.200313 -1.382955 -1.294645 0.145010 2.997572 -22.763040 -2.719995 4.670031 -6.055865 -4.094653 9.423910 6.061959 -0.594389 42.784223 -15.543636 -16.041078 -33.346008 -63.991134 97.403128 -56.891938 34.294643 38.023984 -8.649326 3.991160 -4.977763 -38.365832 -12.339475 24.459970 20.770318 -62.301796 -87.585039 34.418693 25.462827 -68.822099 -5.627871 7.784970 -25.222161 2.357223 -0.209924 -11.775927 3.837373 -5.664481 4.291138 0.138417 0.185332 -0.174530 2.592330 -9.180203 12.680338 -1.192106 -1.479741 14.873049 4.231702 -9.995391 7.629978 -15.397594 16.156748 -2.265641 
75.539406 -7.214434 84.393349 -0.238028 2.714289 -134.137102 -4.101807 -3.792939 0.506605 -1.873573 -1.713349 0.218085 -1.873572 -1.713348 0.218080 -1.404465 -1.285694 0.158297 2.856724 -22.603869 -2.464442 4.483011 -5.765296 -3.668647 9.441941 6.061023 -0.555286 42.825747 -15.584009 -16.042639 -33.217672 -64.016344 97.271354 -56.808746 34.254573 38.006021 -8.659111 4.019237 -4.967002 -38.317563 -12.323324 24.499607 20.780878 -62.264694 -87.618145 34.393766 25.489074 -68.882765 -5.377580 7.498180 -25.228077 2.453640 -0.199162 -11.670138 3.629790 -5.161575 4.397602 0.080281 0.105701 -0.268618 2.852975 -9.266473 12.759266 -1.145148 -1.467455 14.844194 4.581410 -11.068851 7.452246 -16.396303 16.946007 -2.538142 
75.403404 -7.864981 84.425278 -0.320452 2.831110 -134.148768 -4.149818 -3.756583 0.508917 -1.895596 -1.696908 0.229199 -1.895596 -1.696907 0.229200 -1.420957 -1.273406 0.166626 2.697984 -22.442134 -2.204804 4.265584 -5.469907 -3.240192 9.438831 6.027723 -0.529513 42.874556 -15.579904 -16.047118 -33.184761 -64.025046 97.210804 -56.721074 34.216645 38.011502 -8.677384 4.013619 -4.947480 -38.286144 -12.273748 24.535643 20.787129 -62.253254 -87.641060 34.354199 25.491279 -68.932899 -5.135875 7.230304 -25.263717 2.544110 -0.211971 -11.492825 3.429904 -4.661667 4.478321 0.015904 0.044927 -0.375944 3.104837 -9.332300 12.814243 -1.101553 -1.483044 14.783733 4.941679 -12.121048 7.251055 -17.382843 17.711659 -2.819997 
75.258339 -8.508390 84.449348 -0.399702 2.938941 -134.158822 -4.177660 -3.716895 0.505718 -1.912474 -1.679512 0.238153 -1.912474 -1.679513 0.238154 -1.433600 -1.260395 0.173351 2.519578 -22.268252 -1.939242 4.014949 -5.151827 -2.806330 9.434625 5.988889 -0.500008 42.905831 -15.538035 -16.071000 -33.273967 -64.017881 97.268417 -56.639682 34.175415 38.016201 -8.686731 3.996807 -4.929220 -38.276657 -12.191223 24.592919 20.817667 -62.264346 -87.695975 34.322442 25.442952 -68.948062 -4.893770 6.975701 -25.309707 2.616893 -0.243023 -11.274399 3.234489 -4.171682 4.506086 -0.033972 -0.003488 -0.466561 3.370389 -9.385940 12.836473 -1.075087 -1.515376 14.680513 5.319549 -13.146962 7.099830 -18.374542 18.433299 -3.113004 
75.119942 -9.129036 84.462570 -0.502509 3.042647 -134.164928 -4.212004 -3.690176 0.491084 -1.921908 -1.665127 0.241714 -1.921908 -1.665126 0.241712 -1.440671 -1.249620 0.176046 2.321376 -22.072368 -1.663322 3.732103 -4.792732 -2.359033 9.422004 5.997324 -0.469470 42.918440 -15.519240 -16.121495 -33.342866 -64.020545 97.332627 -56.551972 34.115760 38.024001 -8.694773 3.991582 -4.897241 -38.279870 -12.106955 24.668784 20.873307 -62.268383 -87.787417 34.289701 25.343523 -68.920140 -4.686168 6.734578 -25.387747 2.692277 -0.329320 -11.070354 3.034038 -3.672174 4.548750 -0.078650 -0.043517 -0.552078 3.603131 -9.439467 12.812281 -1.034753 -1.577518 14.593193 5.693524 -14.116469 6.979648 -19.358225 19.099070 -3.409584 
